<svg width="160" height="160" viewBox="0 0 160 160" xmlns="http://www.w3.org/2000/svg">
  <rect width="160" height="160" rx="32" fill="#0b0b10"/>
  <path d="M48 122c-10 7-26 14-28 10s6-24 20-32" stroke="#ff7544" stroke-width="7" stroke-linecap="round" fill="none"/>
  <path d="M112 122c10 7 26 14 28 10s-6-24-20-32" stroke="#ff7544" stroke-width="7" stroke-linecap="round" fill="none"/>
  <path d="M80 20c-26 0-40 17-40 42 0 34 24 62 40 62s40-28 40-62c0-25-14-42-40-42z" fill="#ff784f"/>
  <path d="M52 36c0-12 10-22 28-22s28 10 28 22" stroke="#ff916c" stroke-width="8" stroke-linecap="round"/>
  <path d="M100 28c6 10 8 30 6 32s-10-10-12-24" fill="#ff9b78"/>
  <path d="M84 16c8 8 8 24 4 26s-10-10-10-22" fill="#ff9b78"/>
  <circle cx="62" cy="70" r="14" fill="#fff"/>
  <circle cx="98" cy="70" r="14" fill="#fff"/>
  <circle cx="62" cy="70" r="5" fill="#16171b"/>
  <circle cx="98" cy="70" r="5" fill="#16171b"/>
  <path d="M64 94c6 6 26 6 32 0" stroke="#1a1b1f" stroke-width="5" stroke-linecap="round"/>
  <path d="M78 108c-6 8-9 8-16 0s-23-8-32 12c9 8 28 12 48 12s39-4 48-12c-9-20-22-20-32-12s-10 8-16 0z" fill="#fff2cc" opacity=".95"/>
  <path d="M106 26l10 4-4 12-12-4z" fill="#0c1224"/>
</svg>
